<mxfile host="app.diagrams.net" modified="2023-05-31T08:02:09.755Z" agent="Mozilla/5.0 (Windows NT 10.0; Win64; x64) AppleWebKit/537.36 (KHTML, like Gecko) Chrome/113.0.0.0 Safari/537.36 Edg/113.0.1774.57" version="21.3.6" etag="HaUkYW-f7dKMzha2-IWo" type="github">
  <diagram name="Страница 1" id="t4VmaoJ8ExeXy0XWSY_O">
    <mxGraphModel>
      <root>
        <mxCell id="0" />
        <mxCell id="1" parent="0" />
      </root>
    </mxGraphModel>
  </diagram>
</mxfile>
